{
  "accessors": [
    {
      "bufferView": 1,
      "componentType": 5126,
      "count": 183,
      "max": [
        0.766435444355011,
        1.6939616203308105,
        0.6994760632514954
      ],
      "min": [
        -0.24329371750354767,
        0.02098964899778366,
        -0.21376635134220123
      ],
      "type": "VEC3"
    },
    {
      "bufferView": 1,
      "byteOffset": 2196,
      "componentType": 5126,
      "count": 183,
      "max": [
        0.9917903542518616,
        0.9833923578262329,
        0.997972309589386
      ],
      "min": [
        -0.9979743361473083,
        -0.9981975555419922,
        -0.9930406808853149
      ],
      "type": "VEC3"
    },
    {
      "bufferView": 0,
      "componentType": 5125,
      "count": 321,
      "type": "SCALAR"
    },
    {
      "bufferView": 1,
      "byteOffset": 4392,
      "componentType": 5126,
      "count": 181,
      "max": [
        0.7954854965209961,
        1.6939616203308105,
        0.6994760632514954
      ],
      "min": [
        -0.24329371750354767,
        0.02098964899778366,
        -0.21376635134220123
      ],
      "type": "VEC3"
    },
    {
      "bufferView": 1,
      "byteOffset": 6564,
      "componentType": 5126,
      "count": 181,
      "max": [
        0.9917903542518616,
        0.9833923578262329,
        0.9944213628768921
      ],
      "min": [
        -0.9979743361473083,
        -0.9981975555419922,
        -0.9940115809440613
      ],
      "type": "VEC3"
    },
    {
      "bufferView": 0,
      "byteOffset": 1284,
      "componentType": 5125,
      "count": 321,
      "type": "SCALAR"
    },
    {
      "bufferView": 1,
      "byteOffset": 8736,
      "componentType": 5126,
      "count": 183,
      "max": [
        0.766435444355011,
        1.6939616203308105,
        0.6994760632514954
      ],
      "min": [
        -0.24329371750354767,
        0.02098964899778366,
        -0.21376635134220123
      ],
      "type": "VEC3"
    },
    {
      "bufferView": 1,
      "byteOffset": 10932,
      "componentType": 5126,
      "count": 183,
      "max": [
        0.9917903542518616,
        0.9833923578262329,
        0.997972309589386
      ],
      "min": [
        -0.9979743361473083,
        -0.9981975555419922,
        -0.9940115809440613
      ],
      "type": "VEC3"
    },
    {
      "bufferView": 0,
      "byteOffset": 2568,
      "componentType": 5125,
      "count": 321,
      "type": "SCALAR"
    },
    {
      "bufferView": 1,
      "byteOffset": 13128,
      "componentType": 5126,
      "count": 185,
      "max": [
        0.766435444355011,
        1.6939616203308105,
        0.7700068950653076
      ],
      "min": [
        -0.29839304089546204,
        0.02098964899778366,
        -0.21376635134220123
      ],
      "type": "VEC3"
    },
    {
      "bufferView": 1,
      "byteOffset": 15348,
      "componentType": 5126,
      "count": 185,
      "max": [
        0.9917903542518616,
        0.9833923578262329,
        0.9992848038673401
      ],
      "min": [
        -0.9979743361473083,
        -0.9981975555419922,
        -0.9930849075317383
      ],
      "type": "VEC3"
    },
    {
      "bufferView": 0,
      "byteOffset": 3852,
      "componentType": 5125,
      "count": 321,
      "type": "SCALAR"
    },
    {
      "bufferView": 1,
      "byteOffset": 17568,
      "componentType": 5126,
      "count": 179,
      "max": [
        0.766435444355011,
        1.6939616203308105,
        0.6994760632514954
      ],
      "min": [
        -0.24329371750354767,
        0.02098964899778366,
        -0.21376635134220123
      ],
      "type": "VEC3"
    },
    {
      "bufferView": 1,
      "byteOffset": 19716,
      "componentType": 5126,
      "count": 179,
      "max": [
        0.9917903542518616,
        0.9833923578262329,
        0.997972309589386
      ],
      "min": [
        -0.9979743361473083,
        -0.9981975555419922,
        -0.9940115809440613
      ],
      "type": "VEC3"
    },
    {
      "bufferView": 0,
      "byteOffset": 5136,
      "componentType": 5125,
      "count": 321,
      "type": "SCALAR"
    }
  ],
  "asset": {
    "extras": {
      "author": "foreverxing (https://sketchfab.com/foreverxing)",
      "license": "CC-BY-4.0 (http://creativecommons.org/licenses/by/4.0/)",
      "source": "https://sketchfab.com/3d-models/autumn-lowpoly-grass-5477accb9d294cd18962dd461d08b9e0",
      "title": "Autumn lowpoly grass"
    },
    "generator": "Sketchfab-12.65.0",
    "version": "2.0"
  },
  "bufferViews": [
    {
      "buffer": 0,
      "byteLength": 6420,
      "name": "floatBufferViews",
      "target": 34963
    },
    {
      "buffer": 0,
      "byteLength": 21864,
      "byteOffset": 6420,
      "byteStride": 12,
      "name": "floatBufferViews",
      "target": 34962
    }
  ],
  "buffers": [
    {
      "byteLength": 28284,
      "uri": "scene.bin"
    }
  ],
  "materials": [
    {
      "doubleSided": true,
      "name": "Material.001",
      "pbrMetallicRoughness": {
        "baseColorFactor": [
          0.432791,
          0.522516,
          0.0663787,
          1.0
        ],
        "metallicFactor": 0.373738,
        "roughnessFactor": 0.5
      }
    }
  ],
  "meshes": [
    {
      "name": "Object_0",
      "primitives": [
        {
          "attributes": {
            "NORMAL": 1,
            "POSITION": 0
          },
          "indices": 2,
          "material": 0,
          "mode": 4
        }
      ]
    },
    {
      "name": "Object_1",
      "primitives": [
        {
          "attributes": {
            "NORMAL": 4,
            "POSITION": 3
          },
          "indices": 5,
          "material": 0,
          "mode": 4
        }
      ]
    },
    {
      "name": "Object_2",
      "primitives": [
        {
          "attributes": {
            "NORMAL": 7,
            "POSITION": 6
          },
          "indices": 8,
          "material": 0,
          "mode": 4
        }
      ]
    },
    {
      "name": "Object_3",
      "primitives": [
        {
          "attributes": {
            "NORMAL": 10,
            "POSITION": 9
          },
          "indices": 11,
          "material": 0,
          "mode": 4
        }
      ]
    },
    {
      "name": "Object_4",
      "primitives": [
        {
          "attributes": {
            "NORMAL": 13,
            "POSITION": 12
          },
          "indices": 14,
          "material": 0,
          "mode": 4
        }
      ]
    }
  ],
  "nodes": [
    {
      "children": [
        1
      ],
      "matrix": [
        1.0,
        0.0,
        0.0,
        0.0,
        0.0,
        2.220446049250313e-16,
        -1.0,
        0.0,
        0.0,
        1.0,
        2.220446049250313e-16,
        0.0,
        0.0,
        0.0,
        0.0,
        1.0
      ],
      "name": "Sketchfab_model"
    },
    {
      "children": [
        2
      ],
      "name": "root"
    },
    {
      "children": [
        3,
        5,
        7,
        9,
        11
      ],
      "matrix": [
        1.0,
        0.0,
        0.0,
        0.0,
        0.0,
        2.220446049250313e-16,
        1.0,
        0.0,
        0.0,
        -1.0,
        2.220446049250313e-16,
        0.0,
        0.0,
        0.0,
        0.0,
        1.0
      ],
      "name": "GLTF_SceneRootNode"
    },
    {
      "children": [
        4
      ],
      "matrix": [
        0.955730297078592,
        -0.001967808259899416,
        0.2942375349555499,
        0.0,
        0.027104249630046883,
        1.0151153410565543,
        -0.08125000164152034,
        0.0,
        -0.2930387579941199,
        0.08405447307934162,
        0.9523986202576198,
        0.0,
        0.13776874542236328,
        0.0,
        -0.10318176448345184,
        1.0
      ],
      "name": "Cube_0"
    },
    {
      "mesh": 0,
      "name": "Object_4"
    },
    {
      "children": [
        6
      ],
      "matrix": [
        0.930722148337261,
        -0.04463142476910276,
        -0.36299355161979596,
        0.0,
        0.008480181925842616,
        0.6113829251390009,
        -0.053428491502399963,
        0.0,
        0.3654659856064061,
        0.07600356177195565,
        0.9277165903241759,
        0.0,
        0.18265098333358765,
        0.0,
        -0.16324515640735626,
        1.0
      ],
      "name": "Cube.001_1"
    },
    {
      "mesh": 1,
      "name": "Object_6"
    },
    {
      "children": [
        8
      ],
      "matrix": [
        0.8355272040125681,
        -0.06955420891310424,
        -0.5450289014147899,
        0.0,
        0.10721684149418431,
        1.046735528193543,
        0.030783186264802788,
        0.0,
        0.539926157968904,
        -0.07994629573947505,
        0.8379071152212962,
        0.0,
        0.124086894094944,
        0.0,
        -0.10452829301357269,
        1.0
      ],
      "name": "Cube.002_2"
    },
    {
      "mesh": 2,
      "name": "Object_8"
    },
    {
      "children": [
        10
      ],
      "matrix": [
        0.7285431737568453,
        -0.06371542113513333,
        0.6820301966056017,
        0.0,
        0.07221155199388984,
        1.3859001941872509,
        0.052334898703918525,
        0.0,
        -0.6830235479065223,
        0.008008707461791682,
        0.7303524447894854,
        0.0,
        -0.10502064973115921,
        0.0,
        -0.10886633396148682,
        1.0
      ],
      "name": "Cube.003_3"
    },
    {
      "mesh": 3,
      "name": "Object_10"
    },
    {
      "children": [
        12
      ],
      "matrix": [
        0.9460045423845462,
        0.08695703836136635,
        0.312272123743419,
        0.0,
        -0.11491918580239802,
        1.133563389325449,
        0.032480506181597306,
        0.0,
        -0.30807560823934793,
        -0.05844062871137898,
        0.9495652228908631,
        0.0,
        0.07627518475055695,
        0.0,
        -0.13694696128368378,
        1.0
      ],
      "name": "Cube.004_4"
    },
    {
      "mesh": 4,
      "name": "Object_12"
    }
  ],
  "scene": 0,
  "scenes": [
    {
      "name": "Sketchfab_Scene",
      "nodes": [
        0
      ]
    }
  ]
}
